# xmcd
#
# Track frame offsets: 
#        300
#        23675
#        51270
#        66735
#        83808
#        118788
#        142068
#        165423
#
# Disc length: 2428 seconds
#
# Revision: 4
# Processed by: cddbd v1.5.2PL0 Copyright (c) Steve Scherf et al.
# Submitted via: ExactAudioCopy v0.95b4
#
DISCID=71097808
DTITLE=Cacophony - Go Off!
DYEAR=1988
DGENRE=Heavy Metal
TTITLE0=X-Ray Eyes
TTITLE1=E.S.P.
TTITLE2=Stranger
TTITLE3=Go off!
TTITLE4=Black Cat
TTITLE5=Sword of the Warrior
TTITLE6=Floating World
TTITLE7=Images
EXTD=YEAR: 1988
EXTT0=
EXTT1=
EXTT2=
EXTT3=
EXTT4=
EXTT5=
EXTT6=
EXTT7=
PLAYORDER=
